<mxfile host="Electron" modified="2023-11-02T16:43:06.770Z" agent="Mozilla/5.0 (Macintosh; Intel Mac OS X 10_15_7) AppleWebKit/537.36 (KHTML, like Gecko) draw.io/22.0.0 Chrome/114.0.5735.289 Electron/25.8.3 Safari/537.36" etag="UWWjYZR4JttnyxqzvuBY" version="22.0.0" type="device">
  <diagram name="Page-1" id="e7e014a7-5840-1c2e-5031-d8a46d1fe8dd">
    <mxGraphModel dx="915" dy="512" grid="1" gridSize="10" guides="1" tooltips="1" connect="1" arrows="1" fold="1" page="1" pageScale="1" pageWidth="1169" pageHeight="826" background="none" math="0" shadow="0">
      <root>
        <mxCell id="0" />
        <mxCell id="1" parent="0" />
        <mxCell id="szFDY3hvtiqq0gpE-xKA-41" value="provider: &lt;b&gt;aws&lt;/b&gt;" style="shape=umlFrame;whiteSpace=wrap;html=1;pointerEvents=0;width=100;height=20;" vertex="1" parent="1">
          <mxGeometry x="20" y="20" width="760" height="610" as="geometry" />
        </mxCell>
        <mxCell id="szFDY3hvtiqq0gpE-xKA-42" value="group: &lt;b&gt;dev&lt;/b&gt;" style="shape=umlFrame;whiteSpace=wrap;html=1;pointerEvents=0;width=100;height=20;" vertex="1" parent="1">
          <mxGeometry x="40" y="60" width="490" height="550" as="geometry" />
        </mxCell>
        <mxCell id="szFDY3hvtiqq0gpE-xKA-43" value="env: &lt;b&gt;ci&lt;/b&gt;" style="shape=umlFrame;whiteSpace=wrap;html=1;pointerEvents=0;width=100;height=20;" vertex="1" parent="1">
          <mxGeometry x="60" y="110" width="140" height="380" as="geometry" />
        </mxCell>
        <mxCell id="szFDY3hvtiqq0gpE-xKA-44" value="env: &lt;b&gt;dev01&lt;/b&gt;" style="shape=umlFrame;whiteSpace=wrap;html=1;pointerEvents=0;width=100;height=20;" vertex="1" parent="1">
          <mxGeometry x="210" y="110" width="280" height="460" as="geometry" />
        </mxCell>
        <mxCell id="szFDY3hvtiqq0gpE-xKA-45" value="network" style="shape=umlFrame;whiteSpace=wrap;html=1;pointerEvents=0;width=110;height=20;" vertex="1" parent="1">
          <mxGeometry x="220" y="150" width="180" height="60" as="geometry" />
        </mxCell>
        <mxCell id="szFDY3hvtiqq0gpE-xKA-46" value="managed" style="shape=umlFrame;whiteSpace=wrap;html=1;pointerEvents=0;width=110;height=20;" vertex="1" parent="1">
          <mxGeometry x="220" y="220" width="180" height="60" as="geometry" />
        </mxCell>
        <mxCell id="szFDY3hvtiqq0gpE-xKA-48" value="app" style="shape=umlFrame;whiteSpace=wrap;html=1;pointerEvents=0;width=110;height=20;" vertex="1" parent="1">
          <mxGeometry x="220" y="290" width="180" height="60" as="geometry" />
        </mxCell>
        <mxCell id="szFDY3hvtiqq0gpE-xKA-49" value="tenant: &lt;b&gt;petramco&lt;/b&gt;" style="shape=umlFrame;whiteSpace=wrap;html=1;pointerEvents=0;width=110;height=20;" vertex="1" parent="1">
          <mxGeometry x="220" y="360" width="180" height="60" as="geometry" />
        </mxCell>
        <mxCell id="szFDY3hvtiqq0gpE-xKA-50" value="tenant: &lt;b&gt;pepsico&lt;/b&gt;" style="shape=umlFrame;whiteSpace=wrap;html=1;pointerEvents=0;width=110;height=20;" vertex="1" parent="1">
          <mxGeometry x="220" y="430" width="180" height="60" as="geometry" />
        </mxCell>
      </root>
    </mxGraphModel>
  </diagram>
</mxfile>
